<?xml version="1.0" encoding="UTF-8"?>
<svg id="Forja" xmlns="http://www.w3.org/2000/svg" viewBox="0 0 607.6 601.65">
  <defs>
    <style>
      .cls-1 {
        fill: #373737;
      }

      .cls-2 {
        fill: #a98a51;
      }
    </style>
  </defs>
  <path class="cls-1" d="M535.96,412.57c.06-.12.12-.25.18-.37.75-1.56,1.48-3.13,2.2-4.7.59-1.3,1.16-2.6,1.73-3.91.17-.4.35-.8.53-1.2,12.86-29.95,20.2-62.82,20.75-97.34,0-.21,0-.42,0-.63.02-1.19.05-2.38.05-3.57,0-.52-.02-1.04-.02-1.55,0-.73-.02-1.46-.03-2.19-.02-1.28-.04-2.56-.07-3.84-.03-1.13-.08-2.26-.13-3.39-.04-.93-.07-1.86-.12-2.79-.08-1.48-.18-2.96-.28-4.44-.04-.61-.07-1.23-.12-1.84-.15-1.92-.32-3.83-.51-5.75-.02-.2-.03-.39-.05-.59-.21-2.08-.45-4.15-.71-6.23-.16-1.25-.34-2.49-.52-3.73-.11-.78-.21-1.56-.33-2.34-.25-1.67-.53-3.34-.81-5-.06-.32-.1-.65-.16-.97-.34-1.94-.7-3.87-1.09-5.8,0-.02,0-.04-.01-.06-8.8-44.28-28.95-84.48-57.3-117.42,7.09-4.01,13.65-8.57,19.73-13.73,4.55-3.86,18.4-15.62,19.1-36.19.29-8.45-3.71-16.47-10.63-21.33s-15.83-5.88-23.67-2.73c-1.24.5-2.45,1-3.64,1.5-2.04.85-3.8,1.58-5.32,2.11,0,0,0,0,0,0-8.51,2.93-18.42,3.21-29.89,3.53l-6.31.19c-11.14.33-22.66.67-34.59,2.65-1.9.32-3.8.69-5.7,1.1-31.72-15.76-67.15-25.16-104.64-26.56-.46-.02-.92-.04-1.37-.05-1.21-.04-2.42-.07-3.64-.09-1.37-.03-2.74-.05-4.11-.05-.22,0-.43,0-.65,0-.21,0-.41,0-.62,0-27.83,0-55.25,4.52-81.38,13.33-.27.09-.54.18-.8.27-1.24.42-2.48.87-3.71,1.31-.89.32-1.77.63-2.65.95-.58.21-1.15.44-1.72.65-31.48,11.88-60.03,29.74-84.24,52.21-.37.34-.73.68-1.1,1.02-.91.85-1.81,1.71-2.71,2.58-.9.86-1.79,1.74-2.68,2.61-.34.34-.67.67-1.01,1.01-20.44,20.46-37.12,44.05-49.53,69.91-.06.13-.12.26-.18.39-.74,1.56-1.48,3.12-2.19,4.69-.59,1.3-1.17,2.62-1.74,3.93-.17.4-.35.79-.52,1.18-12.18,28.35-19.4,59.33-20.61,91.84-.02.42-.03.83-.05,1.25-.04,1.25-.07,2.51-.09,3.76-.03,1.33-.04,2.66-.05,3.99,0,.24,0,.48,0,.72,0,.23,0,.45,0,.68.01,27.76,4.51,55.12,13.29,81.2.11.32.21.64.32.96.41,1.19.83,2.38,1.26,3.57.33.93.66,1.87,1,2.8.2.53.4,1.05.6,1.58,11.88,31.53,29.76,60.12,52.26,84.37.33.36.66.71.99,1.07.86.92,1.73,1.83,2.61,2.74.86.89,1.72,1.77,2.59,2.65.34.35.69.69,1.03,1.03,20.45,20.43,44.03,37.11,69.88,49.51.14.07.29.14.44.21,1.54.74,3.08,1.46,4.64,2.17,1.32.6,2.65,1.18,3.97,1.76.38.17.76.34,1.14.5,28.15,12.09,58.9,19.3,91.17,20.58.52.02,1.03.04,1.55.06,1.07.04,2.15.07,3.22.1,2.06.05,4.12.08,6.17.08,27.91,0,55.41-4.54,81.62-13.4.24-.08.49-.16.73-.24,1.59-.54,3.17-1.1,4.75-1.67,1.27-.46,2.53-.94,3.79-1.42.66-.25,1.32-.49,1.98-.75,1.5-.59,3-1.19,4.49-1.8.04-.02.09-.03.13-.05,28.67-11.81,54.74-28.64,77.12-49.41.35-.33.7-.65,1.05-.98.93-.87,1.84-1.74,2.76-2.62.89-.85,1.76-1.71,2.64-2.57.35-.35.7-.69,1.04-1.04,20.43-20.46,37.11-44.04,49.51-69.89Z"/>
  <g>
    <g>
      <path class="cls-2" d="M147.86,423.95c-1.6-.07-3.34.68-5.23,2.24-1.87,1.55-2.92,3.12-3.16,4.71-.24,1.59.42,3.32,1.96,5.19,2.91,3.52,6.23,3.74,9.94.66,1.89-1.56,2.95-3.14,3.18-4.72.23-1.58-.43-3.31-1.98-5.18-1.55-1.87-3.12-2.84-4.72-2.91Z"/>
      <path class="cls-2" d="M181.22,454.96l-4.72-3.85-2.62,3.21,4.73,3.85c1.77,1.44,3.09,1.63,3.97.56.87-1.08.42-2.33-1.35-3.78Z"/>
      <polygon class="cls-2" points="238.95 498.04 244.48 499.8 243.72 492.54 238.95 498.04"/>
      <polygon class="cls-2" points="164.85 155.94 158.07 153.24 160.73 160.02 164.85 155.94"/>
      <path class="cls-2" d="M326.18,103.75c1.08-.73,1.75-2.61,2.01-5.65.27-3.18-.02-5.21-.88-6.11-.76-.8-2.65-1.33-5.68-1.59l-3.5-.3-1.18,13.83,3.5.3c2.98.26,4.89.09,5.73-.49Z"/>
      <path class="cls-2" d="M294.21,498.47l-3.51-.16-.63,13.87,3.51.16c2.99.13,4.89-.1,5.71-.72,1.05-.77,1.65-2.68,1.78-5.72.14-3.18-.23-5.21-1.12-6.07-.78-.77-2.7-1.22-5.74-1.36Z"/>
      <path class="cls-2" d="M205.61,130.17c2.59-1.48,4.08-2.71,4.44-3.66.48-1.21-.05-3.14-1.56-5.79-1.59-2.76-2.98-4.27-4.2-4.52-1.08-.23-2.93.41-5.58,1.93l-3.05,1.74,6.89,12.05,3.05-1.75Z"/>
      <path class="cls-2" d="M114.57,212.19c-1.26-.56-2.36.21-3.28,2.3l-2.46,5.57,3.79,1.67,2.46-5.57c.92-2.09.75-3.41-.51-3.97Z"/>
      <path class="cls-2" d="M103.46,263.54c2.37.52,4.25.39,5.66-.4,1.4-.79,2.36-2.37,2.89-4.74.99-4.46-.88-7.21-5.59-8.25-2.39-.53-4.29-.4-5.68.39s-2.34,2.37-2.87,4.74c-.52,2.37-.32,4.2.6,5.51.93,1.3,2.59,2.22,4.98,2.75Z"/>
      <path class="cls-2" d="M508.78,287.74c-2.45.08-4.25.67-5.4,1.78-1.15,1.11-1.68,2.88-1.6,5.3.08,2.43.73,4.15,1.95,5.19,1.22,1.03,3.05,1.51,5.51,1.43,2.43-.08,4.22-.67,5.38-1.79,1.16-1.11,1.7-2.88,1.62-5.3-.15-4.57-2.63-6.77-7.46-6.61Z"/>
      <path class="cls-2" d="M413.81,467.23c-1.08-.19-2.92.53-5.5,2.14l-2.98,1.86,7.37,11.76,2.98-1.87c2.54-1.58,3.96-2.86,4.29-3.83.43-1.23-.17-3.14-1.78-5.72-1.69-2.7-3.15-4.15-4.37-4.35Z"/>
      <path class="cls-2" d="M495.61,169.36c1.07,7.47,1.04,18.17-1.72,33.39-3.98,21.92-12.84,40.21-18.28,49.94,6.78,24.13,8.6,50.07,4.36,76.44-15.63,97.3-107.18,163.5-204.47,147.87s-163.5-107.18-147.87-204.47c15.61-97.16,106.92-163.3,204.06-147.92,2.23-3.18,5.91-7.96,11.19-13.5l7.06-25.02,17.23,4.86c5.71-3.57,11.38-6.33,16.73-8.46-13.76-5.03-28.2-8.85-43.21-11.26-126.8-20.37-246.11,65.91-266.48,192.71-20.37,126.8,65.91,246.11,192.71,266.48,126.8,20.37,246.11-65.91,266.48-192.71,9.85-61.32-5.24-120.88-37.79-168.35ZM307.38,81.33l16.4,1.4c4.53.39,7.9,1.13,10.13,2.22,3.34,1.62,5.28,4.32,5.8,8.1.17,1.34.14,3.3-.07,5.85-.22,2.56-.53,4.48-.92,5.78-1.16,3.61-3.52,5.94-7.09,7-2.38.7-5.84.86-10.36.47l-16.4-1.4,2.52-29.43ZM269.08,84.76l3.3,21.45,16.9-2.6,1.19,7.74-28.19,4.33-4.49-29.19,11.29-1.73ZM248.61,88.53l2.53,7.41-18.22,6.23.82,2.4,15.89-5.43,2.53,7.41-15.9,5.43,1.14,3.32,18.22-6.23,2.53,7.41-29.07,9.93-9.55-27.94,29.07-9.93ZM196.11,110.6c3.94-2.26,7.14-3.57,9.6-3.93,3.67-.57,6.8.55,9.38,3.36.9,1.01,1.99,2.63,3.27,4.86,1.27,2.23,2.12,3.98,2.53,5.28,1.1,3.63.48,6.89-1.86,9.79-1.56,1.93-4.31,4.03-8.25,6.28l-14.29,8.17-14.67-25.63,14.29-8.17ZM153.91,141.83l31.69,10.18-8.63,8.54-5.25-2-8.42,8.34,1.95,5.27-8.6,8.52-9.95-31.7,7.22-7.14ZM132.25,164.81l15.06,10.35c6.35,4.36,6.63,10.74.87,19.13-2.6,3.79-5.13,6.27-7.57,7.43-2.53,1.24-5.53,1.35-9.01.33l3.91-9.94c2.59.96,4.61.38,6.07-1.73,1.64-2.39,1.37-4.34-.81-5.84l-14.99-10.31,6.47-9.41ZM104.73,210.9c1.82-4.13,3.75-6.99,5.78-8.59,2.51-1.98,5.4-2.24,8.67-.8,3.07,1.36,4.48,4.52,4.23,9.5,3.54-1.18,8.72-2.68,15.53-4.48l-5.45,12.35-10.54,2.29c-1.91.42-3.24,1.47-3.98,3.15l10.14,4.47-4.63,10.49-27.02-11.92,7.26-16.45ZM90.19,253.59c1.13-5.12,3.21-9.03,6.23-11.71,3.39-3.07,7.55-4.05,12.49-2.96,4.93,1.09,8.29,3.74,10.07,7.95,1.61,3.71,1.85,8.12.71,13.24-1.13,5.12-3.21,9.03-6.22,11.71-3.39,3.06-7.55,4.05-12.49,2.96-4.93-1.09-8.29-3.74-10.07-7.94-1.61-3.7-1.85-8.12-.71-13.24ZM85.94,278.64l7.82.24-.57,18.74,2.5.08.51-16.83,7.87.24-.52,16.83,11.33.35-.35,11.42-29.52-.9.93-30.16ZM97.63,352.21l-9.05-1.15,7.27-5.52c1.21-.92,2-2.28,2.19-3.79l1.15-9.05,5.52,7.27c.92,1.21,2.28,2,3.79,2.19l9.05,1.15-7.27,5.52c-1.21.92-2,2.28-2.19,3.79l-1.15,9.05-5.52-7.27c-.92-1.21-2.28-2-3.79-2.19ZM120.98,398.83l-9.93,5.48-5.52-10.01,25.86-14.26,14.57,26.41-6.85,3.78-9.05-16.41-2.19,1.21,8.13,14.75-6.89,3.8-8.14-14.75ZM146.25,448.68c-3.91-1.01-7.54-3.53-10.89-7.57-3.35-4.04-5.15-8.08-5.41-12.11-.33-4.56,1.45-8.45,5.34-11.67,3.89-3.22,8.04-4.24,12.46-3.07,3.91,1.01,7.54,3.53,10.89,7.57,3.35,4.04,5.15,8.08,5.41,12.11.33,4.56-1.45,8.45-5.34,11.67-3.89,3.22-8.04,4.24-12.46,3.07ZM181.58,483.74l-10.47-8.52.58-10.76c.1-1.95-.56-3.51-1.98-4.67l-7,8.6-8.89-7.24,18.64-22.9,13.95,11.35c3.5,2.85,5.75,5.46,6.76,7.85,1.24,2.94.73,5.8-1.53,8.58-2.12,2.6-5.54,3.13-10.27,1.56.2,3.73.27,9.11.21,16.16ZM199.62,494.03c-4.04-2.2-6.77-4.45-8.18-6.76-1.5-2.39-1.92-5.36-1.27-8.92l10.3,2.85c-.69,2.68.1,4.63,2.36,5.85,2.55,1.39,4.46.92,5.73-1.41l8.69-15.99,10.04,5.45-8.72,16.06c-3.68,6.77-9.99,7.72-18.94,2.86ZM246.02,512.67l-.67-5.58-11.29-3.59-3.77,4.17-11.53-3.67,23.47-23.53,9.68,3.08,5.68,32.8-11.57-3.68ZM493.47,239.33c1.14-1,1.83-2.42,1.92-3.93l.51-9.11,6.02,6.86c1,1.14,2.42,1.83,3.93,1.92l9.11.51-6.86,6.02c-1.14,1-1.83,2.42-1.92,3.93l-.51,9.11-6.02-6.86c-1-1.14-2.42-1.83-3.93-1.92l-9.11-.51,6.86-6.02ZM312.54,506.25c-.12,2.57-.34,4.5-.69,5.82-1.01,3.65-3.28,6.08-6.81,7.27-2.35.8-5.8,1.09-10.33.89l-16.44-.75,1.34-29.5,16.44.75c4.54.21,7.94.81,10.21,1.82,3.41,1.48,5.45,4.1,6.12,7.86.22,1.34.27,3.29.16,5.85ZM321.1,520.31l-4.18-29.24,30.41-4.35,1.11,7.75-19.06,2.72.36,2.52,16.63-2.38,1.11,7.75-16.63,2.38.5,3.48,19.06-2.73,1.11,7.75-30.41,4.35ZM360.65,513.62l-9.24-28.05,10.85-3.57,6.79,20.61,16.24-5.35,2.45,7.43-27.09,8.93ZM429.08,480.38c-1.48,1.99-4.14,4.19-7.99,6.6l-13.95,8.74-15.67-25.03,13.95-8.74c3.85-2.41,6.99-3.85,9.43-4.31,3.65-.72,6.81.28,9.51,2.98.94.97,2.1,2.55,3.46,4.72,1.36,2.18,2.27,3.9,2.74,5.17,1.25,3.58.76,6.87-1.47,9.86ZM442.87,472.02l-20.11-21.63,22.5-20.91,5.33,5.73-14.1,13.11,1.73,1.86,12.3-11.44,5.33,5.73-12.3,11.44,2.39,2.57,14.1-13.11,5.33,5.73-22.5,20.91ZM486.04,421.85c-.74,3.32-2.27,6.55-4.61,9.7-2.76,3.72-5.47,6.29-8.14,7.72-3.21,1.73-6.68,2-10.4.82l5.29-9.2c2.68.41,5.11-.85,7.27-3.77.67-.9,1.17-1.8,1.51-2.68.46-1.27.37-2.15-.27-2.62-.79-.59-2.58.43-5.36,3.03-3.93,3.69-6.64,6-8.13,6.93-3.4,2.12-6.28,2.3-8.66.53-2.54-1.88-3.34-4.85-2.41-8.9.71-3.09,2.16-6.11,4.34-9.05,2.28-3.08,4.5-5.32,6.66-6.71,2.63-1.7,5.63-2.5,8.99-2.39l-3.33,9.54c-1.47.18-2.66.57-3.58,1.17-.92.6-1.85,1.54-2.79,2.81-1.54,2.08-1.91,3.43-1.09,4.03.61.45,2.15-.51,4.62-2.9,3.25-3.1,4.91-4.68,4.98-4.73,2.23-1.97,4.25-3.25,6.05-3.83,2.36-.78,4.5-.46,6.4.95,2.74,2.03,3.63,5.22,2.66,9.56ZM499.53,401.82l-19.53-9.47-4.89,10.09-7.04-3.41,14.8-30.54,7.05,3.42-4.89,10.09,19.53,9.47-5.02,10.36ZM511.71,373.59l-28.12-9.01,3.55-11.08,28.12,9.01-3.55,11.08ZM522.26,329.23l-15.51,10.82,13.36,2.2-1.87,11.31-29.14-4.81,1.44-8.72,15.51-10.82-13.36-2.2,1.87-11.31,29.14,4.81-1.44,8.72ZM520.97,306.99c-2.53,3.81-6.32,5.8-11.36,5.96s-8.96-1.57-11.73-5.2c-2.47-3.19-3.8-7.41-3.97-12.65-.17-5.24.87-9.54,3.13-12.89,2.53-3.81,6.32-5.8,11.36-5.96,5.05-.16,8.96,1.57,11.73,5.2,2.48,3.19,3.8,7.41,3.97,12.66.17,5.24-.87,9.54-3.13,12.89Z"/>
    </g>
    <g>
      <path class="cls-2" d="M502.84,86.17c-13.27,4.57-27.09,4.56-40.9,4.99-11.33.35-22.79.56-33.93,2.4-17.9,2.97-34.29,10.37-49.35,20.5-8.7,5.85-16.25,12.98-23.53,21.83,13.79-1.59,24.13-8.87,35.46-14.4,1.43,4.14-1.18,6.26-3.57,8.34-3.93,3.44-7.82,6.97-12.04,10.02-9.66,6.98-19.2,14.24-29.38,20.38-10.54,6.36-22.47,9.15-34.75,10.52-17.11,1.91-33.83,5.4-49.78,12.32-14.45,6.27-27.53,14.35-38.57,25.63-1.36,1.39-2.89,2.61-4.34,3.91-.35-.38-.71-.75-1.06-1.13,8.49-24.01,28.79-37.3,48.34-51.27-24.69,3.67-43.54,17.3-60.21,34.3-11.93,12.17-19.96,27.06-27.74,42.12-8.68,16.81-15.55,34.18-15.96,53.26-.77,36.09,8.83,70.14,27.94,96.91.5.12,1.01.22,1.51.34,15.17,3.7,30.42,7.38,45.18,12.39,13.12,4.45,21.16,14.61,24.35,28.16.78,3.3,1.71,6.52,2.73,9.71,6.05,1.61,12.36,2.86,18.91,3.75v-107.03c0-1.83-1.51-3.29-3.33-3.26-2.66.06-5.13.12-7.46.19.47-1.42,1.02-2.79,1.69-4.1.03-.07.07-.13.1-.2.34-.65.69-1.29,1.07-1.91.31-.5.63-.98.96-1.46h0c1.98-2.82,4.43-5.28,7.26-7.26.48-.33.96-.66,1.46-.96.62-.38,1.26-.74,1.91-1.07.07-.03.13-.07.2-.1,2.03-1.03,4.18-1.83,6.45-2.37.57-.13,1.14-.25,1.71-.35.4-.07.8-.13,1.21-.19.05,0,.1-.01.15-.02.36-.05.73-.09,1.09-.12.15-.01.31-.02.47-.04.28-.02.56-.04.84-.06.46-.02.92-.03,1.38-.03s.92.01,1.38.03c.28.01.56.04.84.06.16.01.31.02.47.04.37.03.73.08,1.09.12.05,0,.1.01.15.02.4.05.81.12,1.21.19.58.1,1.15.22,1.71.35,2.26.54,4.42,1.34,6.45,2.37.07.03.13.07.2.1.65.34,1.29.69,1.91,1.07.5.31.98.63,1.46.96,2.82,1.98,5.28,4.43,7.26,7.26h0c.33.48.66.96.96,1.46.38.62.74,1.26,1.07,1.91.03.07.07.13.1.2.67,1.33,1.24,2.71,1.7,4.14l-.6-.02c-2.53-.08-5.25-.15-8.17-.21-1.83-.04-3.34,1.43-3.34,3.26v108.11c15.07-1.3,29.46-5.59,43.05-13.21,22.72-12.74,43.29-27.63,59-49.01,8.01-10.9,14.31-22.23,17.54-35.2,1.41-5.67,1.58-11.65,2.31-17.49-.51-.11-16.26,29.73-31.47,38.93.84-1.25,1.63-2.54,2.53-3.76,5.52-7.5,9.66-15.64,12.17-24.67,4.42-15.93,4.74-32.32,5.91-48.63,1.37-19.05,8.42-36.22,17.75-52.59,1.03-1.8,2.66-3.26,4.74-5.76-4.2,15.94-7.92,30.66-4.32,46.09.96-1.51,1.46-3.11,1.76-4.75,2.65-14.46,7.43-28.14,14.62-40.98,6.09-10.88,10.42-22.36,11.31-34.91.31-4.4.74-8.99-2.7-13.03-1.11.88-1.94,1.59-2.82,2.24-14.55,10.77-25.61,7.68-36.69,0-14.28-9.91-14.7-32.16-3.82-44.06,7.66-8.37,16.95-14.71,28.12-17.56,17.88-4.56,34.41-11.77,48.58-23.79,5.51-4.68,10.02-10.06,10.3-17.99-3.55,1.43-6.79,2.89-10.14,4.05ZM295.29,298.87c-.19,2.1-1.74,3.83-3.81,4.25-.02,0-.05.01-.07.02-2.04.43-4.12-.51-5.15-2.32l-12.26-21.56,6.58,23.93c.55,2.01-.26,4.15-2,5.29-.02.01-.04.03-.06.04-1.77,1.16-4.08,1.03-5.7-.32l-33.34-27.71,27.71,33.35c1.35,1.62,1.47,3.93.32,5.7-.01.02-.03.04-.04.06-1.14,1.75-3.27,2.55-5.29,2l-23.93-6.58,21.56,12.26c1.53.87,2.42,2.49,2.41,4.19l-2.03.08c-10.66.55-16.17,1.22-18.14,1.5-.57.08-1.09.31-1.54.66l-4.46,3.52-14.99-4.15-6.13-76.11,14.61-4.08,7.36,2.7c.36.13.74.2,1.12.2h61.24l-3.98,43.09ZM376.18,333.07l-14.99,4.15-4.46-3.52c-.45-.35-.98-.58-1.54-.66-2.01-.29-7.75-.98-18.87-1.54-.03-1.73.87-3.37,2.41-4.24l21.56-12.26-23.93,6.58c-2.01.55-4.15-.26-5.28-2-.01-.02-.03-.04-.04-.06-1.16-1.77-1.03-4.08.32-5.7l27.71-33.35-33.35,27.71c-1.62,1.35-3.93,1.47-5.7.32-.02-.01-.04-.03-.06-.04-1.75-1.14-2.55-3.27-2-5.29l6.58-23.93-12.26,21.56c-1.03,1.81-3.11,2.75-5.15,2.32-.02,0-.05-.01-.07-.02-2.07-.43-3.61-2.15-3.81-4.25l-3.98-43.09h59.94c.38,0,.76-.07,1.12-.2l7.36-2.7,14.61,4.08-6.13,76.11Z"/>
      <path class="cls-2" d="M313.84,134.9c-7.26,1.93-19.18,12.14-42.87,24.28,11.51,0,43.86-4.24,42.87-24.28Z"/>
      <path class="cls-2" d="M443.51,297.66c-8.38,4.04-7.46,13.58-4.18,18.8,5.39-4.04,6.11-13.6,4.18-18.8Z"/>
      <path class="cls-2" d="M450.15,155.65l-2.89-7.07-2.89,7.07c-.48,1.18-1.41,2.11-2.59,2.59l-7.07,2.89,7.07,2.89c1.18.48,2.11,1.41,2.59,2.59l2.89,7.07,2.89-7.07c.48-1.18,1.41-2.11,2.59-2.59l7.07-2.89-7.07-2.89c-1.18-.48-2.11-1.41-2.59-2.59Z"/>
      <path class="cls-2" d="M220.49,431.51l2.89,7.07,2.89-7.07c.48-1.18,1.41-2.11,2.59-2.59l7.07-2.89-7.07-2.89c-1.18-.48-2.11-1.41-2.59-2.59l-2.89-7.07-2.89,7.07c-.48,1.18-1.41,2.11-2.59,2.59l-7.07,2.89,7.07,2.89c1.18.48,2.11,1.41,2.59,2.59Z"/>
    </g>
  </g>
</svg>